<svg width="21" height="21" viewBox="0 0 21 21" fill="none" xmlns="http://www.w3.org/2000/svg">
<path d="M19.7312 1.26884C18.706 0.243718 17.044 0.243718 16.0188 1.26884L14.8617 2.42599L18.574 6.1383L19.7312 4.98116C20.7563 3.95603 20.7563 2.29397 19.7312 1.26884Z" fill="#0F172A"/>
<path d="M17.5133 7.19896L13.801 3.48665L5.40019 11.8875C4.78341 12.5043 4.33002 13.265 4.081 14.101L3.28122 16.7859C3.2026 17.0498 3.27494 17.3356 3.46967 17.5303C3.6644 17.7251 3.95019 17.7974 4.21412 17.7188L6.89901 16.919C7.73498 16.67 8.49573 16.2166 9.11252 15.5998L17.5133 7.19896Z" fill="#0F172A"/>
<path d="M3.25 4.24999C1.59315 4.24999 0.25 5.59314 0.25 7.24999V17.75C0.25 19.4068 1.59315 20.75 3.25 20.75H13.75C15.4069 20.75 16.75 19.4068 16.75 17.75V12.5C16.75 12.0858 16.4142 11.75 16 11.75C15.5858 11.75 15.25 12.0858 15.25 12.5V17.75C15.25 18.5784 14.5784 19.25 13.75 19.25H3.25C2.42157 19.25 1.75 18.5784 1.75 17.75V7.24999C1.75 6.42156 2.42157 5.74999 3.25 5.74999H8.5C8.91421 5.74999 9.25 5.41421 9.25 4.99999C9.25 4.58578 8.91421 4.24999 8.5 4.24999H3.25Z" fill="#0F172A"/>
</svg>
